<?xml version="1.0" encoding="UTF-8" standalone="no"?>
<!DOCTYPE svg PUBLIC "-//W3C//DTD SVG 1.1//EN" "http://www.w3.org/Graphics/SVG/1.1/DTD/svg11.dtd">
<svg width="573px" height="209px" version="1.1" xmlns="http://www.w3.org/2000/svg" xmlns:xlink="http://www.w3.org/1999/xlink" xml:space="preserve" xmlns:serif="http://www.serif.com/" style="fill-rule:evenodd;clip-rule:evenodd;stroke-linejoin:round;stroke-miterlimit:2;">
    <g transform="matrix(4.16667,0,0,4.16667,-2.77909e-16,-1678.62)">
        <g id="Full-Logo" serif:id="Full Logo" transform="matrix(0.400509,0,0,0.474848,0,276.093)">
            <rect x="0" y="266.984" width="343.313" height="105.297" style="fill:none;"/>
            <g id="Full-Logo" serif:id="Full Logo" transform="matrix(1.00059,0,0,0.843946,4.88898,271.771)">
                <g transform="matrix(1,0,0,1,0.00149605,0.00345913)">
                    <g id="Logo">
                        <path id="Logo" serif:id="Logo"
                            style="fill:rgb(0,102,102);fill-rule:nonzero;"
                            d="M1.556,35.965c-0.964,6.918 -1.248,14.077 -1.434,20.453c-0.44,14.919 -0.11,36.449 8.62,46.998c10,12 21.309,9.43 37.919,9.9c18.449,0.53 51.348,-0.74 61.997,-14.53c7.34,-9.499 3.8,-26.149 4.18,-39.168c0.182,-6.225 0.298,-13.461 -0.289,-20.507c-4.665,-0.406 -7.836,-0.523 -11.8,-0.024c-1.942,0.244 -3.652,0.624 -5.277,2.121c-0.807,0.748 -1.136,1.556 -2.024,2.617c-1.019,1.407 -2.054,2.55 -3.111,3.504c-5.362,4.838 -11.217,4.584 -18.173,9.338c-0,0 -0,0.001 -0.001,0.001c-1.897,1.288 -3.83,3.512 -4.562,5.363c-0.664,1.68 -1.202,3.092 -1.526,4.105c-0.935,2.929 -1.848,5.377 -3.043,8.167c-1.68,3.928 -3.772,7.702 -5.418,11.632c-1.073,2.562 -1.811,5.246 -2.373,7.955c-0.598,2.883 -0.948,6.668 -1.213,9.339c-0.221,2.222 -0.288,5.361 -0.379,6.687c-0.03,0.427 -0.133,1.258 -0.172,1.271c-0.039,0.012 -0.055,-0.796 -0.061,-1.195c-0.02,-1.323 -0.11,-4.495 -0.056,-6.741c0.066,-2.714 0.222,-6.671 0.449,-9.546c0.204,-2.579 0.638,-5.564 0.914,-7.707c0.334,-2.603 0.159,-5.683 -0.322,-7.969c-0.867,-4.123 -1.646,-6.353 -3.1,-8.854c-2.366,-4.069 -3.447,-6.861 -9.394,-10.209c-6.017,-3.389 -10.21,-7.691 -11.351,-9.036c-0.591,-0.698 -4.434,-4.847 -6.927,-6.753c-4.626,-3.536 -8.011,-4.729 -10.873,-5.663c-4.314,-1.406 -7.049,-1.363 -11.2,-1.549Zm19.863,-31.581c0.019,0.237 0.038,0.474 0.057,0.712c1.1,13.459 2.066,20.787 5.767,30.747c1.282,3.449 3.011,7.855 6.626,11.972c3.324,3.786 4.485,5.054 10.346,8.889c5.256,3.438 7.353,7.054 9.489,11.394c1.393,2.831 2.561,5.928 2.831,10.347c0.09,1.364 0.118,2.499 0.102,3.459c1.089,-2.925 2.303,-5.82 3.285,-8.779c0.916,-2.769 1.678,-5.617 2.324,-8.5c0.649,-2.893 1.164,-5.808 1.611,-8.699c0.38,-2.492 0.575,-4.976 0.606,-7.469c0.032,-2.476 -0.136,-4.943 -0.45,-7.427c-0.512,-4.029 -1.744,-8.187 -2.551,-12.337c-0.389,-2.003 -0.659,-3.996 -0.778,-5.971c-0.236,-4.606 0.649,-9.446 2.137,-14.316c0.812,-2.662 1.802,-5.334 2.854,-7.974c-2.533,-0.145 -5.054,-0.246 -7.505,-0.312c-11.941,-0.34 -25.971,-0.21 -36.751,4.264Zm54.689,-2.83c-0.458,0.988 -0.95,1.97 -1.384,2.97c-2.658,6.129 -5.483,12.208 -5.659,18.13c-0.07,1.623 -0.013,3.276 0.135,4.946c0.386,4.349 1.187,8.755 1.282,12.948c0.063,2.782 -0.044,5.529 -0.354,8.265c-0.307,2.716 -1.228,7.915 -1.411,8.609c0.98,-1.167 1.877,-2.031 3.225,-2.958c5.798,-3.992 11.4,-4.28 16.204,-9.374c2.181,-2.313 4.111,-5.702 5.87,-11.143c2.357,-7.226 6.485,-11.752 10.014,-16.833c0.435,-0.627 0.858,-1.264 1.263,-1.919l-0.145,-0.186c-5.399,-6.849 -13.699,-10.499 -22.889,-12.489c-1.057,-0.229 -3.449,-0.6 -6.151,-0.966Zm-63.394,8.157c-0.441,0.394 -0.869,0.803 -1.282,1.229c-4.805,4.912 -7.625,12.941 -9.183,20.901c5.29,0.213 7.084,0.574 10.212,1.465c1.915,0.546 5.844,2.151 8.593,4.14c-4.23,-7.693 -6.451,-17.282 -8.34,-27.735Zm95.738,10.893c-0.845,1.086 -1.729,2.139 -2.623,3.195c-2.822,3.336 -5.573,5.855 -7.616,10.795c-0.402,0.969 -0.923,2.218 -1.329,3.068c2.038,-0.814 3.727,-1.132 5.87,-1.347c3.012,-0.302 5.929,-0.174 9.443,-0.695c-0.654,-5.433 -1.801,-10.628 -3.745,-15.016Z"/>
                    </g>
                </g>
                <g transform="matrix(1,0,0,1,-3.31583,0.00345913)">
                    <g id="Text">
                        <path id="dantro" serif:id="dantro"
                            style="fill:rgb(0,102,102);fill-rule:nonzero;"
                            d="M216.069,65.252l0.002,-0.019l-0,-13.905c0.156,-3.028 -1.033,-5.975 -3.248,-8.047l-0.004,-0.003c-2.132,-1.917 -5.348,-2.901 -9.667,-2.901l-0.001,0c-1.775,0.013 -3.542,0.19 -5.282,0.529c-1.98,0.371 -3.925,0.914 -5.811,1.623l-0.456,0.171l1.932,5.59l0.471,-0.161c1.468,-0.5 2.972,-0.892 4.498,-1.171l0.004,-0.001c1.197,-0.239 2.408,-0.37 3.624,-0.391l0.011,0c1.698,-0.106 3.375,0.326 4.801,1.233c1.152,0.95 1.759,2.408 1.621,3.89l-0.002,0.023l-0,1.523c-0,0 -3.96,0 -3.96,0c-4.91,0.007 -8.666,0.935 -11.279,2.746c-2.654,1.775 -4.195,4.814 -4.059,8.004c-0.108,2.74 0.949,5.412 2.909,7.344l0.007,0.007c2.139,1.948 4.962,2.957 7.841,2.807c1.975,0.013 3.94,-0.37 5.772,-1.128c1.532,-0.623 2.907,-1.578 4.026,-2.791c0.558,1.023 1.372,1.89 2.367,2.513l0.008,0.005c1.296,0.748 2.731,1.2 4.213,1.329l0.394,0.034l1.772,-5.361l-0.516,-0.134c-0.597,-0.156 -1.125,-0.505 -1.501,-0.993c-0.382,-0.729 -0.55,-1.547 -0.487,-2.365Zm-31.414,-36.501l-7.608,-0.851l-0.029,15.167c-0.819,-0.727 -1.745,-1.326 -2.747,-1.776l-0.004,-0.002c-1.453,-0.626 -3.019,-0.937 -4.598,-0.912c-2.485,-0.061 -4.919,0.722 -6.903,2.221l-0.005,0.004c-1.984,1.584 -3.497,3.673 -4.38,6.046c-1.071,2.768 -1.598,5.716 -1.553,8.683c-0.051,2.95 0.382,5.896 1.283,8.712c0.715,2.348 2.111,4.432 4.01,5.987l0.02,0.015c1.996,1.473 4.44,2.214 6.918,2.097l-0.015,0.001c1.823,0.032 3.623,-0.406 5.229,-1.27l0.002,-0.001c1.226,-0.675 2.317,-1.56 3.229,-2.61c-0,-0 0.402,3.091 0.402,3.091l6.749,-0l-0,-44.602Zm98.438,42.879l0.41,-0.251l-2.904,-5.21l-0.434,0.235c-0.801,0.433 -1.649,0.774 -2.526,1.018c-0.983,0.273 -1.999,0.404 -3.019,0.392l-0.027,-0.001l-0.027,0.003c-1.331,0.127 -2.66,-0.261 -3.712,-1.083c-0.794,-0.923 -1.18,-2.125 -1.072,-3.334l0.002,-0.023l-0,-16.4c-0,0 9.698,0 9.698,0l0.894,-5.799l-10.592,-0c-0,-0 -0,-7.822 -0,-7.822l-7.599,0.909l-0,6.943c-0,-0 -6.939,-0 -6.939,-0l-0,5.799l6.939,0c-0,0 -0,16.398 -0,16.398c-0.122,2.885 0.945,5.698 2.95,7.776l0.003,0.004c1.965,1.958 4.827,2.959 8.604,2.959c1.735,0.008 3.463,-0.223 5.134,-0.688c1.484,-0.408 2.904,-1.022 4.217,-1.825Zm39.015,-31.253c-2.788,-0.117 -5.549,0.598 -7.93,2.053l-0.009,0.005c-2.216,1.474 -3.948,3.556 -4.99,5.995l-0.001,0.001c-1.163,2.768 -1.731,5.748 -1.669,8.748c-0.073,3.043 0.496,6.073 1.668,8.887l0.001,0.002c1.028,2.422 2.76,4.479 4.969,5.905l0.007,0.004c2.395,1.443 5.148,2.162 7.935,2.076l-0.013,0c2.783,0.103 5.536,-0.619 7.911,-2.073l0.007,-0.005c2.219,-1.457 3.948,-3.537 4.973,-5.978l-0,0c1.169,-2.793 1.741,-5.8 1.678,-8.827c0.066,-3.01 -0.495,-6.007 -1.647,-8.795l-0.001,-0.001c-1.013,-2.418 -2.726,-4.478 -4.916,-5.915l-0.008,-0.005c-2.402,-1.461 -5.174,-2.182 -7.975,-2.077l0.01,-0Zm-98.338,0.83l-0,32.146l7.569,-0l-0,-22.695c0.538,-0.732 1.147,-1.41 1.817,-2.023l0.002,-0.002c0.702,-0.654 1.496,-1.198 2.357,-1.616c0.825,-0.396 1.728,-0.601 2.643,-0.601l0.034,-0.001c0.884,-0.061 1.765,0.164 2.511,0.64c0.603,0.53 0.989,1.259 1.088,2.053l0.002,0.011c0.244,1.423 0.352,2.855 0.324,4.287l0,19.947l7.6,-0l-0,-23.243c0.151,-2.582 -0.657,-5.131 -2.269,-7.155l-0.019,-0.022c-1.538,-1.714 -3.836,-2.596 -6.911,-2.596l-0.002,0c-3.684,0.024 -7.184,1.553 -9.699,4.2c-0,0 -0.417,-3.33 -0.417,-3.33l-6.63,-0Zm83.304,-0.108l-1.26,7.32c-0.909,-0.232 -1.842,-0.35 -2.78,-0.35c-1.688,-0.07 -3.311,0.674 -4.359,1.999c-1.272,1.792 -2.139,3.839 -2.54,6l-0,16.657l-7.549,0l-0,-31.206l6.549,0l0.7,6.13c0.586,-1.987 1.711,-3.773 3.25,-5.16c1.358,-1.178 3.101,-1.818 4.899,-1.799c1.044,-0.008 2.084,0.13 3.09,0.409Zm-105.016,27.185l-0.033,0.001c-1.302,0.098 -2.591,-0.326 -3.58,-1.178c-0.854,-0.919 -1.285,-2.149 -1.193,-3.396l0.002,-0.029l-0.001,-0.03c-0.066,-1.496 0.609,-2.933 1.802,-3.839l0.002,-0.002c1.273,-0.986 3.399,-1.446 6.365,-1.446c0,-0 3.16,-0 3.16,-0c-0,-0 -0,6.208 -0,6.208c-0.703,1.128 -1.681,2.058 -2.843,2.704l-0.003,0.002c-1.122,0.646 -2.388,0.992 -3.678,1.005Zm-30.637,-21.838l0.01,0c1.116,-0.01 2.204,0.277 3.161,0.831c0.967,0.58 1.803,1.355 2.453,2.275c0.001,0 0.001,14.457 0.001,14.457c-0.703,1.097 -1.585,2.067 -2.609,2.871l0,0.001c-1.018,0.8 -2.284,1.222 -3.579,1.193l-0.012,-0.001c-1.147,0.027 -2.257,-0.341 -3.153,-1.039c-1.007,-0.909 -1.719,-2.092 -2.051,-3.403l-0.001,-0.003c-0.557,-2.068 -0.81,-4.203 -0.754,-6.34l0,-0.006c0,-3.751 0.576,-6.518 1.775,-8.297l0.004,-0.006c1.027,-1.629 2.838,-2.592 4.755,-2.533Zm150.658,0.06l0.028,0.001l0.028,-0.001c1.96,-0.111 3.833,0.846 4.89,2.499l0.004,0.006c1.15,1.699 1.694,4.435 1.687,8.203c-0.006,3.764 -0.558,6.535 -1.7,8.304c-1.148,1.587 -2.988,2.528 -4.944,2.528c-1.954,-0 -3.793,-0.94 -4.939,-2.522c-1.146,-1.758 -1.695,-4.509 -1.695,-8.249c0,-3.746 0.557,-6.504 1.717,-8.264l0.001,-0.001c1.073,-1.657 2.955,-2.614 4.923,-2.504Z"/>
                    </g>
                </g>
            </g>
        </g>
    </g>
</svg>
